<svg width="18" height="21" viewBox="0 0 18 21" fill="none" xmlns="http://www.w3.org/2000/svg">
<path d="M14.8052 4.7019H13.0172C12.928 3.64618 12.4456 2.66244 11.6656 1.9455C10.8855 1.22856 9.86466 0.830688 8.80518 0.830688C7.7457 0.830688 6.72485 1.22856 5.94479 1.9455C5.16473 2.66244 4.68235 3.64618 4.59318 4.7019H2.80518C2.14213 4.7019 1.50625 4.96529 1.03741 5.43413C0.568568 5.90297 0.305176 6.53886 0.305176 7.2019L0.305176 18.2019C0.305176 18.8649 0.568568 19.5008 1.03741 19.9697C1.50625 20.4385 2.14213 20.7019 2.80518 20.7019H14.8052C15.4682 20.7019 16.1041 20.4385 16.5729 19.9697C17.0418 19.5008 17.3052 18.8649 17.3052 18.2019V7.2019C17.3052 6.53886 17.0418 5.90297 16.5729 5.43413C16.1041 4.96529 15.4682 4.7019 14.8052 4.7019V4.7019ZM8.80518 1.8269C9.59982 1.82936 10.3659 2.1235 10.958 2.65348C11.5501 3.18346 11.927 3.91239 12.0172 4.7019H5.59318C5.68334 3.91239 6.06025 3.18346 6.65235 2.65348C7.24445 2.1235 8.01053 1.82936 8.80518 1.8269ZM16.3052 18.2019C16.3052 18.5997 16.1471 18.9813 15.8658 19.2626C15.5845 19.5439 15.203 19.7019 14.8052 19.7019H2.80518C2.40735 19.7019 2.02582 19.5439 1.74452 19.2626C1.46321 18.9813 1.30518 18.5997 1.30518 18.2019V7.2019C1.30518 6.80408 1.46321 6.42254 1.74452 6.14124C2.02582 5.85994 2.40735 5.7019 2.80518 5.7019H14.8052C15.203 5.7019 15.5845 5.85994 15.8658 6.14124C16.1471 6.42254 16.3052 6.80408 16.3052 7.2019V18.2019Z" fill="white"/>
</svg>
