<svg width="18" height="22" viewBox="0 0 18 22" fill="none" xmlns="http://www.w3.org/2000/svg">
<g clip-path="url(#clip0)">
<path d="M17.6227 16.5034C17.2996 17.2433 16.917 17.9243 16.4738 18.5504C15.8697 19.404 15.375 19.9948 14.9938 20.3229C14.4029 20.8615 13.7697 21.1373 13.0917 21.153C12.605 21.153 12.018 21.0157 11.3347 20.7373C10.6492 20.4602 10.0192 20.3229 9.4432 20.3229C8.83906 20.3229 8.19114 20.4602 7.4981 20.7373C6.80401 21.0157 6.24486 21.1608 5.81735 21.1752C5.16718 21.2026 4.51912 20.919 3.87225 20.3229C3.45938 19.9661 2.94297 19.3543 2.32433 18.4877C1.66057 17.5622 1.11488 16.489 0.687366 15.2656C0.229518 13.944 0 12.6643 0 11.4254C0 10.0062 0.309453 8.78222 0.929282 7.7565C1.41641 6.9326 2.06447 6.28269 2.87556 5.80558C3.68666 5.32847 4.56305 5.08534 5.50684 5.06978C6.02325 5.06978 6.70046 5.22808 7.54203 5.53918C8.38122 5.85133 8.92006 6.00962 9.1563 6.00962C9.33292 6.00962 9.93152 5.82453 10.9463 5.45552C11.9059 5.11331 12.7158 4.97162 13.3793 5.02743C15.1772 5.17122 16.5279 5.87355 17.4262 7.13887C15.8182 8.10433 15.0228 9.45658 15.0387 11.1913C15.0532 12.5425 15.5478 13.6669 16.52 14.5597C16.9606 14.9741 17.4526 15.2943 18 15.5218C17.8813 15.8629 17.756 16.1897 17.6227 16.5034ZM13.4993 0.424169C13.4993 1.48324 13.1089 2.47208 12.3306 3.38735C11.3915 4.47542 10.2555 5.10416 9.0236 5.00495C9.00791 4.87789 8.9988 4.74417 8.9988 4.60365C8.9988 3.58695 9.44544 2.49888 10.2386 1.60923C10.6346 1.15879 11.1382 0.78425 11.7489 0.485474C12.3583 0.191156 12.9348 0.0283915 13.4769 0.000518799C13.4927 0.142099 13.4993 0.283689 13.4993 0.424155V0.424169Z" fill="#F5F5F7"/>
</g>
<defs>
<clipPath id="clip0">
<rect width="18" height="21.1765" fill="white"/>
</clipPath>
</defs>
</svg>
