<svg width="18" height="19" viewBox="0 0 18 19" fill="none" xmlns="http://www.w3.org/2000/svg">
<path d="M17.425 17.1484L12.639 12.3604C13.8256 10.9712 14.4281 9.17659 14.3203 7.35285C14.2125 5.52912 13.4028 3.81796 12.0608 2.57825C10.7189 1.33855 8.94909 0.6666 7.12254 0.703335C5.29599 0.740069 3.55461 1.48263 2.26361 2.77529C0.972616 4.06795 0.232294 5.81028 0.197909 7.63688C0.163523 9.46347 0.837747 11.2324 2.07918 12.5728C3.32061 13.9131 5.03281 14.7207 6.85668 14.8261C8.68055 14.9316 10.4744 14.3267 11.862 13.1384L16.647 17.9264C16.6972 17.9813 16.7579 18.0255 16.8256 18.0563C16.8932 18.0871 16.9664 18.1039 17.0408 18.1056C17.1151 18.1073 17.189 18.0939 17.258 18.0662C17.327 18.0386 17.3897 17.9972 17.4423 17.9446C17.4949 17.8921 17.5362 17.8294 17.5639 17.7604C17.5915 17.6913 17.6049 17.6174 17.6032 17.5431C17.6015 17.4688 17.5848 17.3956 17.554 17.3279C17.5232 17.2602 17.479 17.1995 17.424 17.1494L17.425 17.1484ZM1.34005 7.78539C1.34163 6.60972 1.6917 5.46091 2.34602 4.48415C3.00033 3.50739 3.92952 2.74652 5.01615 2.29771C6.10278 1.8489 7.29807 1.73229 8.45095 1.96262C9.60384 2.19295 10.6626 2.75988 11.4933 3.59176C12.3241 4.42364 12.8896 5.48313 13.1184 6.63632C13.3472 7.78951 13.2289 8.98464 12.7787 10.0707C12.3284 11.1567 11.5663 12.0849 10.5886 12.7379C9.611 13.3909 8.46172 13.7394 7.28605 13.7394C5.70858 13.7365 4.19667 13.108 3.08198 11.9918C1.96729 10.8756 1.34084 9.36286 1.34005 7.78539Z" fill="white"/>
</svg>
